<?xml version="1.0" encoding="UTF-8"?>
<svg width="32" height="32" viewBox="0 0 32 32" fill="none" xmlns="http://www.w3.org/2000/svg">
  <circle cx="16" cy="16" r="16" fill="#F7931A"/>
  <path d="M22.5 14.5C22.5 12 20.5 11 18 11V9H16V11H15V9H13V11H10V13H11.5C12.1 13 12.5 13.4 12.5 14V20C12.5 20.6 12.1 21 11.5 21H10V23H13V25H15V23H16V25H18V23C21 23 22.5 21.5 22.5 19C22.5 17.5 21.5 16.5 20 16C21.5 15.5 22.5 14.5 22.5 14.5ZM16 13H18C19.4 13 20 13.6 20 14.5C20 15.4 19.4 16 18 16H16V13ZM18.5 21H16V18H18.5C20 18 20.5 18.6 20.5 19.5C20.5 20.4 20 21 18.5 21Z" fill="white"/>
</svg>
