<?xml version="1.0" encoding="UTF-8"?>
<svg width="32" height="32" viewBox="0 0 32 32" fill="none" xmlns="http://www.w3.org/2000/svg">
  <circle cx="16" cy="16" r="16" fill="#DC2626" opacity="0.1"/>
  <path d="M16.5 8L15.5 9H14C12.8954 9 12 9.89543 12 11V18C12 19.1046 12.8954 20 14 20H18C19.1046 20 20 19.1046 20 18V11C20 9.89543 19.1046 9 18 9H16.5L15.5 8H16.5ZM14.5 11H17.5C17.7761 11 18 11.2239 18 11.5V17.5C18 17.7761 17.7761 18 17.5 18H14.5C14.2239 18 14 17.7761 14 17.5V11.5C14 11.2239 14.2239 11 14.5 11ZM16 12.5C15.4477 12.5 15 12.9477 15 13.5V15.5C15 16.0523 15.4477 16.5 16 16.5C16.5523 16.5 17 16.0523 17 15.5V13.5C17 12.9477 16.5523 12.5 16 12.5Z" fill="#DC2626"/>
</svg>
