<?xml version="1.0" encoding="UTF-8"?>
<svg width="32" height="32" viewBox="0 0 32 32" fill="none" xmlns="http://www.w3.org/2000/svg">
  <circle cx="16" cy="16" r="16" fill="#16A34A" opacity="0.1"/>
  <path d="M17.5 8H15.5V10H14C12.8954 10 12 10.8954 12 12V12.5C12 13.6046 12.8954 14.5 14 14.5H18C18.2761 14.5 18.5 14.7239 18.5 15V17C18.5 17.2761 18.2761 17.5 18 17.5H14C13.7239 17.5 13.5 17.2761 13.5 17V16.5H11.5V17C11.5 18.1046 12.3954 19 13.5 19H15.5V21H17.5V19H19C20.1046 19 21 18.1046 21 17V16.5C21 15.3954 20.1046 14.5 19 14.5H15C14.7239 14.5 14.5 14.2761 14.5 14V12C14.5 11.7239 14.7239 11.5 15 11.5H19C19.2761 11.5 19.5 11.7239 19.5 12V12.5H21.5V12C21.5 10.8954 20.6046 10 19.5 10H17.5V8Z" fill="#16A34A"/>
</svg>
