<?xml version="1.0" encoding="UTF-8" standalone="no"?>
<svg width="800" height="600" viewBox="0 0 800 600" fill="none" xmlns="http://www.w3.org/2000/svg">
  <defs>
    <!-- Complex Gradients -->
    <linearGradient id="purpleHair" x1="0%" y1="0%" x2="100%" y2="100%">
      <stop offset="0%" style="stop-color:#9C27B0;stop-opacity:1" />
      <stop offset="50%" style="stop-color:#673AB7;stop-opacity:1" />
      <stop offset="100%" style="stop-color:#512DA8;stop-opacity:1" />
    </linearGradient>
    <linearGradient id="yellowClothing" x1="0%" y1="0%" x2="100%" y2="100%">
      <stop offset="0%" style="stop-color:#FFC107;stop-opacity:1" />
      <stop offset="50%" style="stop-color:#FFB300;stop-opacity:1" />
      <stop offset="100%" style="stop-color:#FFA000;stop-opacity:1" />
    </linearGradient>
    <linearGradient id="windowGlow" x1="0%" y1="0%" x2="100%" y2="100%">
      <stop offset="0%" style="stop-color:#FFFFFF;stop-opacity:0.1" />
      <stop offset="100%" style="stop-color:#FFFFFF;stop-opacity:0.05" />
    </linearGradient>
    
    <!-- Complex Filters -->
    <filter id="modernShadow">
      <feGaussianBlur in="SourceAlpha" stdDeviation="4"/>
      <feOffset dx="2" dy="4" result="offsetblur"/>
      <feComponentTransfer>
        <feFuncA type="linear" slope="0.3"/>
      </feComponentTransfer>
      <feMerge> 
        <feMergeNode/>
        <feMergeNode in="SourceGraphic"/> 
      </feMerge>
    </filter>
    
    <!-- Modern Patterns -->
    <pattern id="modernGrid" width="20" height="20" patternUnits="userSpaceOnUse">
      <path d="M 20 0 L 0 0 0 20" fill="none" stroke="#F0F0F0" stroke-width="0.5"/>
    </pattern>
  </defs>

  <!-- Background with Modern Pattern -->
  <rect width="100%" height="100%" fill="#FAFAFA"/>
  <rect width="100%" height="100%" fill="url(#modernGrid)" opacity="0.3"/>

  <!-- First Chat Window Group -->
  <g transform="translate(100, 50)">
    <!-- Modern Window Frame -->
    <g filter="url(#modernShadow)">
      <path d="M0 20C0 8.95431 8.95431 0 20 0H330C341.046 0 350 8.95431 350 20V280C350 291.046 341.046 300 330 300H20C8.95431 300 0 291.046 0 280V20Z" fill="white"/>
      <path d="M0 20C0 8.95431 8.95431 0 20 0H330C341.046 0 350 8.95431 350 20V60H0V20Z" fill="#F5F5F5"/>
    </g>
    
    <!-- Window Controls -->
    <g transform="translate(20, 30)">
      <circle cx="0" cy="0" r="6" fill="#FF5F57"/>
      <circle cx="22" cy="0" r="6" fill="#FEBC2E"/>
      <circle cx="44" cy="0" r="6" fill="#28C840"/>
    </g>
    
    <!-- Modern Person Illustration -->
    <g transform="translate(50, 80)">
      <!-- Artistic Hair -->
      <path d="M40 0C70 0 90 30 90 60C90 90 70 110 40 110C10 110 -10 90 -10 60C-10 30 10 0 40 0Z" fill="url(#purpleHair)">
        <animate attributeName="d" dur="3s" repeatCount="indefinite"
          values="M40 0C70 0 90 30 90 60C90 90 70 110 40 110C10 110 -10 90 -10 60C-10 30 10 0 40 0Z;
                 M40 0C75 0 95 30 95 60C95 90 75 115 40 115C5 115 -15 90 -15 60C-15 30 5 0 40 0Z;
                 M40 0C70 0 90 30 90 60C90 90 70 110 40 110C10 110 -10 90 -10 60C-10 30 10 0 40 0Z"/>
      </path>
      
      <!-- Modern Face -->
      <g transform="translate(40, 50)">
        <!-- Eyes -->
        <g transform="translate(-20, 0)">
          <path d="M0 0C3 0 5 2 5 5C5 8 3 10 0 10C-3 10 -5 8 -5 5C-5 2 -3 0 0 0Z" fill="#424242"/>
          <circle cx="1" cy="3" r="2" fill="white"/>
        </g>
        <g transform="translate(20, 0)">
          <path d="M0 0C3 0 5 2 5 5C5 8 3 10 0 10C-3 10 -5 8 -5 5C-5 2 -3 0 0 0Z" fill="#424242"/>
          <circle cx="1" cy="3" r="2" fill="white"/>
        </g>
        
        <!-- Artistic Smile -->
        <path d="M-15 20C-10 30 10 30 15 20" stroke="#424242" stroke-width="3" stroke-linecap="round"/>
      </g>
      
      <!-- Modern Clothing -->
      <path d="M0 100L80 100L90 200H-10L0 100Z" fill="url(#yellowClothing)">
        <animate attributeName="d" dur="4s" repeatCount="indefinite"
          values="M0 100L80 100L90 200H-10L0 100Z;
                 M-5 100L85 100L95 200H-15L-5 100Z;
                 M0 100L80 100L90 200H-10L0 100Z"/>
      </path>
    </g>
  </g>

  <!-- Second Chat Window Group -->
  <g transform="translate(400, 200)">
    <!-- Modern Window Frame -->
    <g filter="url(#modernShadow)">
      <path d="M0 20C0 8.95431 8.95431 0 20 0H330C341.046 0 350 8.95431 350 20V280C350 291.046 341.046 300 330 300H20C8.95431 300 0 291.046 0 280V20Z" fill="white"/>
      <path d="M0 20C0 8.95431 8.95431 0 20 0H330C341.046 0 350 8.95431 350 20V60H0V20Z" fill="#F5F5F5"/>
    </g>
    
    <!-- Window Controls -->
    <g transform="translate(20, 30)">
      <circle cx="0" cy="0" r="6" fill="#FF5F57"/>
      <circle cx="22" cy="0" r="6" fill="#FEBC2E"/>
      <circle cx="44" cy="0" r="6" fill="#28C840"/>
    </g>
    
    <!-- Modern Person Illustration -->
    <g transform="translate(50, 80)">
      <!-- Artistic Hair -->
      <path d="M40 0C80 0 100 40 80 80C60 120 20 100 0 80C-20 60 0 0 40 0Z" fill="url(#purpleHair)">
        <animate attributeName="d" dur="3s" repeatCount="indefinite"
          values="M40 0C80 0 100 40 80 80C60 120 20 100 0 80C-20 60 0 0 40 0Z;
                 M40 0C85 0 105 40 85 80C65 120 25 105 5 85C-15 65 5 0 40 0Z;
                 M40 0C80 0 100 40 80 80C60 120 20 100 0 80C-20 60 0 0 40 0Z"/>
      </path>
      
      <!-- Modern Face -->
      <g transform="translate(40, 50)">
        <!-- Eyes -->
        <g transform="translate(-20, 0)">
          <path d="M0 0C3 0 5 2 5 5C5 8 3 10 0 10C-3 10 -5 8 -5 5C-5 2 -3 0 0 0Z" fill="#424242"/>
          <circle cx="1" cy="3" r="2" fill="white"/>
        </g>
        <g transform="translate(20, 0)">
          <path d="M0 0C3 0 5 2 5 5C5 8 3 10 0 10C-3 10 -5 8 -5 5C-5 2 -3 0 0 0Z" fill="#424242"/>
          <circle cx="1" cy="3" r="2" fill="white"/>
        </g>
        
        <!-- Artistic Smile -->
        <path d="M-15 20C-10 30 10 30 15 20" stroke="#424242" stroke-width="3" stroke-linecap="round"/>
      </g>
      
      <!-- Modern Clothing -->
      <path d="M0 100L80 100L90 200H-10L0 100Z" fill="#4CAF50">
        <animate attributeName="d" dur="4s" repeatCount="indefinite"
          values="M0 100L80 100L90 200H-10L0 100Z;
                 M-5 100L85 100L95 200H-15L-5 100Z;
                 M0 100L80 100L90 200H-10L0 100Z"/>
      </path>
    </g>
  </g>

  <!-- Connecting Elements -->
  <g>
    <!-- Animated Connection Lines -->
    <path d="M350 150C400 175 450 175 500 200" stroke="#9C27B0" stroke-width="2" stroke-dasharray="4 4" opacity="0.6">
      <animate attributeName="stroke-dashoffset" values="0;-20" dur="1s" repeatCount="indefinite"/>
    </path>
    <path d="M350 200C400 225 450 225 500 250" stroke="#9C27B0" stroke-width="2" stroke-dasharray="4 4" opacity="0.6">
      <animate attributeName="stroke-dashoffset" values="0;-20" dur="1s" repeatCount="indefinite"/>
    </path>
  </g>

  <!-- Modern Floating Elements -->
  <g>
    <!-- Social Icons with Complex Animations -->
    <g transform="translate(50, 300)">
      <circle cx="0" cy="0" r="25" fill="#E4405F">
        <animate attributeName="r" values="25;27;25" dur="2s" repeatCount="indefinite"/>
        <animate attributeName="cy" values="0;-10;0" dur="3s" repeatCount="indefinite"/>
      </circle>
      <path d="M-12 -12h24v24h-24z" fill="none" stroke="white" stroke-width="2" rx="6"/>
      <circle cx="0" cy="0" r="6" fill="none" stroke="white" stroke-width="2"/>
      <circle cx="8" cy="-8" r="2" fill="white"/>
    </g>

    <g transform="translate(700, 150)">
      <circle cx="0" cy="0" r="25" fill="#1DA1F2">
        <animate attributeName="r" values="25;27;25" dur="2.5s" repeatCount="indefinite"/>
        <animate attributeName="cy" values="0;10;0" dur="4s" repeatCount="indefinite"/>
      </circle>
      <path d="M-8 4c9.389-5.444 13.944-8.667 13.667-9.667-1.222-3.444-2.444-4.889-3.667-4.333" stroke="white" stroke-width="2" fill="none"/>
      <path d="M-8 4c5.333-8.889 10-13.333 14-13.333" stroke="white" stroke-width="2" fill="none"/>
    </g>

    <g transform="translate(650, 450)">
      <circle cx="0" cy="0" r="25" fill="#FF0000">
        <animate attributeName="r" values="25;27;25" dur="3s" repeatCount="indefinite"/>
        <animate attributeName="cy" values="0;-10;0" dur="2.5s" repeatCount="indefinite"/>
      </circle>
      <path d="M-10 -7L10 0L-10 7Z" fill="white"/>
    </g>
  </g>

  <!-- Decorative Background Elements -->
  <g>
    <!-- Floating Dots -->
    <g>
      <circle cx="200" cy="400" r="5" fill="#9C27B0" opacity="0.3">
        <animate attributeName="cy" values="400;390;400" dur="3s" repeatCount="indefinite"/>
        <animate attributeName="r" values="5;6;5" dur="2s" repeatCount="indefinite"/>
      </circle>
      <circle cx="600" cy="200" r="6" fill="#FFC107" opacity="0.3">
        <animate attributeName="cy" values="200;210;200" dur="4s" repeatCount="indefinite"/>
        <animate attributeName="r" values="6;7;6" dur="3s" repeatCount="indefinite"/>
      </circle>
      <circle cx="400" cy="100" r="7" fill="#4CAF50" opacity="0.3">
        <animate attributeName="cy" values="100;90;100" dur="5s" repeatCount="indefinite"/>
        <animate attributeName="r" values="7;8;7" dur="2.5s" repeatCount="indefinite"/>
      </circle>
    </g>

    <!-- Modern Curves -->
    <path d="M300 500Q400 450 500 500" stroke="#9C27B0" stroke-width="1.5" stroke-dasharray="4 4" opacity="0.4">
      <animate attributeName="d" dur="5s" repeatCount="indefinite"
        values="M300 500Q400 450 500 500;M300 510Q400 440 500 510;M300 500Q400 450 500 500"/>
    </path>
    <path d="M100 200Q150 150 200 200" stroke="#4CAF50" stroke-width="1.5" stroke-dasharray="4 4" opacity="0.4">
      <animate attributeName="d" dur="4s" repeatCount="indefinite"
        values="M100 200Q150 150 200 200;M100 210Q150 140 200 210;M100 200Q150 150 200 200"/>
    </path>
  </g>

  <!-- Chat Bubbles -->
  <g>
    <g transform="translate(150, 150)">
      <rect x="0" y="0" width="120" height="50" rx="25" fill="#F5F5F5" filter="url(#modernShadow)"/>
      <circle cx="30" cy="25" r="4" fill="#9C27B0">
        <animate attributeName="opacity" values="1;0.5;1" dur="1s" repeatCount="indefinite"/>
      </circle>
      <circle cx="60" cy="25" r="4" fill="#9C27B0">
        <animate attributeName="opacity" values="1;0.5;1" dur="1s" repeatCount="indefinite" begin="0.3s"/>
      </circle>
      <circle cx="90" cy="25" r="4" fill="#9C27B0">
        <animate attributeName="opacity" values="1;0.5;1" dur="1s" repeatCount="indefinite" begin="0.6s"/>
      </circle>
    </g>

    <g transform="translate(450, 300)">
      <rect x="0" y="0" width="120" height="50" rx="25" fill="#F5F5F5" filter="url(#modernShadow)"/>
      <circle cx="30" cy="25" r="4" fill="#4CAF50">
        <animate attributeName="opacity" values="1;0.5;1" dur="1s" repeatCount="indefinite"/>
      </circle>
      <circle cx="60" cy="25" r="4" fill="#4CAF50">
        <animate attributeName="opacity" values="1;0.5;1" dur="1s" repeatCount="indefinite" begin="0.3s"/>
      </circle>
      <circle cx="90" cy="25" r="4" fill="#4CAF50">
        <animate attributeName="opacity" values="1;0.5;1" dur="1s" repeatCount="indefinite" begin="0.6s"/>
      </circle>
    </g>
  </g>
</svg>
