<?xml version="1.0" encoding="UTF-8" standalone="no"?>
<svg width="800" height="600" viewBox="0 0 800 600" fill="none" xmlns="http://www.w3.org/2000/svg">
  <!-- Gradient Definitions -->
  <defs>
    <linearGradient id="windowGradient" x1="0%" y1="0%" x2="100%" y2="100%">
      <stop offset="0%" style="stop-color:#F0F9FF;stop-opacity:1" />
      <stop offset="100%" style="stop-color:#E6F3FF;stop-opacity:1" />
    </linearGradient>
    <linearGradient id="yellowGradient" x1="0%" y1="0%" x2="100%" y2="100%">
      <stop offset="0%" style="stop-color:#FFD700;stop-opacity:1" />
      <stop offset="100%" style="stop-color:#FFC000;stop-opacity:1" />
    </linearGradient>
    <linearGradient id="purpleGradient" x1="0%" y1="0%" x2="100%" y2="100%">
      <stop offset="0%" style="stop-color:#6B46C1;stop-opacity:1" />
      <stop offset="100%" style="stop-color:#553C9A;stop-opacity:1" />
    </linearGradient>
  </defs>

  <!-- Background Elements -->
  <g id="floating-shapes">
    <circle cx="100" cy="100" r="8" fill="#FFD700" opacity="0.6">
      <animate attributeName="cy" values="100;90;100" dur="3s" repeatCount="indefinite" />
    </circle>
    <circle cx="700" cy="400" r="6" fill="#4CAF50" opacity="0.6">
      <animate attributeName="cy" values="400;410;400" dur="2.5s" repeatCount="indefinite" />
    </circle>
    <circle cx="200" cy="500" r="10" fill="#FF4444" opacity="0.6">
      <animate attributeName="cy" values="500;510;500" dur="4s" repeatCount="indefinite" />
    </circle>
  </g>

  <!-- Connection Lines with Animation -->
  <g id="connection-lines">
    <path d="M250 200 C 350 250, 450 250, 550 300" stroke="#6B7280" stroke-width="2" stroke-dasharray="4 4">
      <animate attributeName="stroke-dashoffset" values="0;-20" dur="1s" repeatCount="indefinite" />
    </path>
    <path d="M250 250 C 350 300, 450 300, 550 350" stroke="#6B7280" stroke-width="2" stroke-dasharray="4 4">
      <animate attributeName="stroke-dashoffset" values="0;-20" dur="1s" repeatCount="indefinite" />
    </path>
  </g>

  <!-- First Chat Window -->
  <g id="chat-window-1" transform="translate(100, 100)">
    <!-- Window Frame -->
    <rect x="0" y="0" width="300" height="200" rx="12" fill="url(#windowGradient)" filter="drop-shadow(0 4px 6px rgba(0, 0, 0, 0.1))" />
    
    <!-- Title Bar -->
    <rect x="0" y="0" width="300" height="30" rx="12" fill="#F3F4F6" />
    <circle cx="20" cy="15" r="5" fill="#FF6B6B" />
    <circle cx="40" cy="15" r="5" fill="#FFD93D" />
    <circle cx="60" cy="15" r="5" fill="#6BCB77" />
    
    <!-- Person -->
    <g transform="translate(30, 50)">
      <!-- Hair -->
      <path d="M30 0 C 45 0, 60 15, 60 30 L 60 40 C 60 55, 45 70, 30 70 C 15 70, 0 55, 0 40 L 0 30 C 0 15, 15 0, 30 0" fill="#553C9A" />
      
      <!-- Face -->
      <circle cx="30" cy="35" r="25" fill="#FFE4C4" />
      
      <!-- Eyes -->
      <ellipse cx="20" cy="30" rx="3" ry="4" fill="#2D3748" />
      <ellipse cx="40" cy="30" rx="3" ry="4" fill="#2D3748" />
      
      <!-- Smile -->
      <path d="M20 45 Q 30 55 40 45" stroke="#2D3748" stroke-width="2" fill="none" />
      
      <!-- Yellow Shirt -->
      <path d="M5 70 L 55 70 L 60 120 L 0 120 Z" fill="url(#yellowGradient)" />
    </g>
  </g>

  <!-- Second Chat Window -->
  <g id="chat-window-2" transform="translate(400, 250)">
    <!-- Window Frame -->
    <rect x="0" y="0" width="300" height="200" rx="12" fill="url(#windowGradient)" filter="drop-shadow(0 4px 6px rgba(0, 0, 0, 0.1))" />
    
    <!-- Title Bar -->
    <rect x="0" y="0" width="300" height="30" rx="12" fill="#F3F4F6" />
    <circle cx="20" cy="15" r="5" fill="#FF6B6B" />
    <circle cx="40" cy="15" r="5" fill="#FFD93D" />
    <circle cx="60" cy="15" r="5" fill="#6BCB77" />
    
    <!-- Person -->
    <g transform="translate(30, 50)">
      <!-- Hair -->
      <path d="M30 0 C 60 0, 80 40, 60 60 C 40 80, 20 60, 0 60 C -20 40, 0 0, 30 0" fill="url(#purpleGradient)" />
      
      <!-- Face -->
      <circle cx="30" cy="35" r="25" fill="#F8D5A3" />
      
      <!-- Eyes -->
      <ellipse cx="20" cy="30" rx="3" ry="4" fill="#2D3748" />
      <ellipse cx="40" cy="30" rx="3" ry="4" fill="#2D3748" />
      
      <!-- Smile -->
      <path d="M20 45 Q 30 55 40 45" stroke="#2D3748" stroke-width="2" fill="none" />
      
      <!-- Green Shirt -->
      <path d="M5 70 L 55 70 L 60 120 L 0 120 Z" fill="#4CAF50" />
    </g>
  </g>

  <!-- Floating Social Icons -->
  <g id="social-icons">
    <!-- Instagram -->
    <g transform="translate(50, 300)">
      <circle cx="0" cy="0" r="15" fill="#E4405F">
        <animate attributeName="cy" values="0;-10;0" dur="3s" repeatCount="indefinite" />
      </circle>
      <rect x="-8" y="-8" width="16" height="16" rx="4" fill="none" stroke="white" stroke-width="2" />
      <circle cx="0" cy="0" r="4" fill="none" stroke="white" stroke-width="2" />
      <circle cx="6" cy="-6" r="1" fill="white" />
    </g>

    <!-- Twitter -->
    <g transform="translate(700, 150)">
      <circle cx="0" cy="0" r="15" fill="#1DA1F2">
        <animate attributeName="cy" values="0;10;0" dur="2.5s" repeatCount="indefinite" />
      </circle>
      <path d="M-8 -2 C-8 -5, -5 -8, -2 -8 L2 -8 C5 -8, 8 -5, 8 -2 L8 2 C8 5, 5 8, 2 8 L-2 8 C-5 8, -8 5, -8 2 Z" fill="none" stroke="white" stroke-width="2" />
    </g>

    <!-- YouTube -->
    <g transform="translate(650, 450)">
      <circle cx="0" cy="0" r="15" fill="#FF0000">
        <animate attributeName="cy" values="0;-10;0" dur="4s" repeatCount="indefinite" />
      </circle>
      <path d="M-5 -3 L5 0 L-5 3 Z" fill="white" />
    </g>
  </g>

  <!-- Decorative Elements -->
  <g id="decorative-elements">
    <circle cx="200" cy="400" r="3" fill="#4CAF50" opacity="0.3" />
    <circle cx="600" cy="200" r="4" fill="#FFD700" opacity="0.3" />
    <circle cx="400" cy="100" r="5" fill="#FF4444" opacity="0.3" />
    <path d="M300 500 Q 400 450 500 500" stroke="#6B7280" stroke-width="1" stroke-dasharray="2 2" opacity="0.5" />
    <path d="M100 200 Q 150 150 200 200" stroke="#6B7280" stroke-width="1" stroke-dasharray="2 2" opacity="0.5" />
  </g>
</svg>
