<?xml version="1.0" encoding="UTF-8"?>
<svg width="512" height="512" viewBox="0 0 512 512" fill="none" xmlns="http://www.w3.org/2000/svg">
  <rect width="512" height="512" rx="256" fill="#41479B"/>
  <path fill="#F5F5F5" d="M256 45L271.789 93.4545H323.17L281.69 123.091L297.479 171.545L256 141.909L214.521 171.545L230.31 123.091L188.83 93.4545H240.211L256 45Z"/>
  <path fill="#F5F5F5" d="M256 340L271.789 388.455H323.17L281.69 418.091L297.479 466.545L256 436.909L214.521 466.545L230.31 418.091L188.83 388.455H240.211L256 340Z"/>
  <path fill="#F5F5F5" d="M389 192.5L404.789 240.955H456.17L414.69 270.591L430.479 319.045L389 289.409L347.521 319.045L363.31 270.591L321.83 240.955H373.211L389 192.5Z"/>
  <path fill="#F5F5F5" d="M123 192.5L138.789 240.955H190.17L148.69 270.591L164.479 319.045L123 289.409L81.5211 319.045L97.3099 270.591L55.8303 240.955H107.211L123 192.5Z"/>
</svg>
