<?xml version="1.0" encoding="UTF-8"?>
<svg width="140" height="42" viewBox="0 0 140 42" fill="none" xmlns="http://www.w3.org/2000/svg">
  <rect width="140" height="42" rx="6" fill="black"/>
  <path d="M27.7 21.7c-.03-3.31 2.69-4.9 2.82-4.98-1.53-2.25-3.92-2.56-4.77-2.6-2.03-.21-3.97 1.2-5 1.2-1.03 0-2.62-1.17-4.3-1.14-2.22.04-4.26 1.3-5.4 3.29-2.3 4.01-.59 9.94 1.65 13.2 1.1 1.58 2.4 3.36 4.12 3.3 1.65-.07 2.28-1.07 4.28-1.07 2 0 2.56 1.07 4.3 1.03 1.78-.03 2.9-1.61 3.98-3.2 1.25-1.83 1.77-3.6 1.8-3.69-.04-.02-3.45-1.33-3.48-5.27zm-3.27-9.69c.91-1.11 1.53-2.65 1.36-4.18-1.32.05-2.91.88-3.86 1.98-.85.98-1.59 2.55-1.39 4.06 1.47.11 2.97-.74 3.89-1.86zm25.04 19.42h-4.74l-1.14-3.59h-3.98l-1.09 3.59h-4.61l3.93-12.19h4.26l3.51 12.19zm-6.37-6.42l-1.04-3.22c-.11-.33-.32-1.09-.63-2.3h-.04c-.12.5-.32 1.27-.59 2.3l-1.02 3.22h3.32zm15.65-2.32c0 2.85-1.51 4.62-3.77 4.62-1.29 0-2.32-.65-2.85-1.76h-.04v5.16h-4.41V20.18h4.28v1.67h.08c.57-1.05 1.68-1.76 2.97-1.76 2.35 0 3.74 1.81 3.74 4.62zm-4.54 0c0-1.31-.67-2.17-1.69-2.17-1 0-1.67.87-1.67 2.17 0 1.31.67 2.17 1.67 2.17 1.02 0 1.69-.86 1.69-2.17zm13.26 0c0 2.85-1.51 4.62-3.77 4.62-1.29 0-2.32-.65-2.85-1.76h-.04v5.16h-4.41V20.18h4.28v1.67h.08c.57-1.05 1.68-1.76 2.97-1.76 2.35 0 3.74 1.81 3.74 4.62zm-4.54 0c0-1.31-.67-2.17-1.69-2.17-1 0-1.67.87-1.67 2.17 0 1.31.67 2.17 1.67 2.17 1.02 0 1.69-.86 1.69-2.17zm13.87 1.1c.33 1.1 1.37 1.82 3.04 1.82 1.6 0 2.46-.65 2.46-1.55 0-.77-.54-1.23-1.82-1.55l-1.84-.44c-2.85-.69-4.18-2.03-4.18-4.2 0-2.69 2.35-4.53 5.69-4.53 3.3 0 5.57 1.84 5.64 4.53h-4.36c-.27-1.09-1.12-1.75-2.57-1.75s-2.23.66-2.23 1.62c0 .77.57 1.22 1.85 1.54l1.57.39c3.18.76 4.51 2.05 4.51 4.33 0 2.92-2.33 4.68-6.03 4.68-3.47 0-5.81-1.79-5.95-4.62l4.22-.27zm12.74-7.95h3.33v2.41h-3.33v4.93c0 1.51.67 2.17 2.19 2.17.39 0 .82-.03 1.11-.08v2.32c-.47.09-1.13.16-1.99.16-3.53 0-5.12-1.18-5.12-4.19v-5.31h-2.46v-2.41h2.46v-2.9h3.81v2.9zm7.2 11.17h-3.81V20.18h3.81v11.17zm-4.02-14.03c0-1.11.91-2.02 2.02-2.02 1.11 0 2.02.91 2.02 2.02 0 1.11-.91 2.02-2.02 2.02-1.11 0-2.02-.91-2.02-2.02zm13.42 14.36c-3.58 0-5.81-2.34-5.81-5.95 0-3.63 2.25-6.02 5.81-6.02 3.57 0 5.81 2.39 5.81 6.02 0 3.61-2.23 5.95-5.81 5.95zm0-9.74c-1.76 0-2.8 1.27-2.8 3.79 0 2.51 1.04 3.79 2.8 3.79 1.76 0 2.8-1.28 2.8-3.79 0-2.52-1.04-3.79-2.8-3.79zm9.26 9.41V20.18h3.82v1.86h.07c.32-1.02 1.22-1.97 2.81-1.97.27 0 .52.02.69.05v3.42c-.33-.06-.71-.1-1.21-.1-1.51 0-2.36.97-2.36 2.36v5.55h-3.82z" fill="white"/>
</svg>
