<?xml version="1.0" encoding="UTF-8"?>
<svg width="140" height="42" viewBox="0 0 140 42" fill="none" xmlns="http://www.w3.org/2000/svg">
  <rect width="140" height="42" rx="6" fill="black"/>
  <path d="M45.57 21.13c0 .92-.27 1.65-.82 2.18-.62.64-1.44.96-2.44.96-.96 0-1.77-.33-2.43-.99-.66-.66-.99-1.48-.99-2.45 0-.97.33-1.79.99-2.45.66-.66 1.47-.99 2.43-.99.48 0 .93.09 1.36.28.43.19.77.43 1.03.73l-.58.58c-.42-.5-1-.75-1.74-.75-.67 0-1.24.24-1.72.71-.48.47-.72 1.09-.72 1.84 0 .75.24 1.37.72 1.84.48.47 1.05.71 1.72.71.7 0 1.29-.23 1.75-.7.3-.3.48-.72.53-1.25h-2.28v-.79h3.04c.03.17.05.33.05.49zm4.71-2.74h-2.85v2.01h2.57v.79h-2.57v2.01h2.85v.81h-3.71v-6.43h3.71v.81zm3.12 5.62h-.86v-5.62h-1.87v-.81h4.6v.81h-1.87v5.62zm4.82 0v-6.43h.86v6.43h-.86zm4.67 0h-.86v-5.62h-1.87v-.81h4.6v.81h-1.87v5.62zm10.92-.81c-.65.65-1.44.97-2.37.97s-1.72-.32-2.37-.97c-.65-.65-.97-1.46-.97-2.41 0-.95.32-1.76.97-2.41.65-.65 1.44-.98 2.37-.98s1.72.33 2.37.98c.65.65.98 1.46.98 2.41 0 .95-.33 1.76-.98 2.41zm-4.12-.56c.48.48 1.07.73 1.75.73s1.27-.24 1.75-.73c.48-.48.73-1.1.73-1.85 0-.75-.24-1.37-.73-1.85-.48-.48-1.07-.73-1.75-.73s-1.27.24-1.75.73c-.48.48-.73 1.1-.73 1.85 0 .75.24 1.37.73 1.85zm6.27 1.37v-6.43h1.05l3.26 5.23h.04l-.04-1.3v-3.93h.86v6.43h-.9l-3.41-5.49h-.04l.04 1.3v4.19h-.86zm-27.95 14.02c-2.96 0-5.39-2.26-5.39-5.37 0-3.09 2.42-5.37 5.39-5.37 2.97 0 5.39 2.28 5.39 5.37 0 3.11-2.42 5.37-5.39 5.37zm0-8.62c-1.69 0-3.15 1.4-3.15 3.25 0 1.87 1.45 3.25 3.15 3.25 1.69 0 3.15-1.38 3.15-3.25 0-1.85-1.45-3.25-3.15-3.25zm-12.23 8.62c-2.96 0-5.39-2.26-5.39-5.37 0-3.09 2.42-5.37 5.39-5.37 2.97 0 5.39 2.28 5.39 5.37 0 3.11-2.42 5.37-5.39 5.37zm0-8.62c-1.69 0-3.15 1.4-3.15 3.25 0 1.87 1.45 3.25 3.15 3.25 1.69 0 3.15-1.38 3.15-3.25 0-1.85-1.45-3.25-3.15-3.25zm-14.57 6.97v-2.24h5.37c-.16-1.27-.59-2.21-1.24-2.86-.8-.8-2.04-1.68-4.13-1.68-3.29 0-5.87 2.67-5.87 5.97s2.58 5.97 5.87 5.97c1.78 0 3.08-.7 4.04-1.61l1.58 1.58c-1.34 1.29-3.13 2.28-5.62 2.28-4.52 0-8.32-3.7-8.32-8.22s3.8-8.22 8.32-8.22c2.44 0 4.28.81 5.72 2.32 1.48 1.48 1.94 3.57 1.94 5.26 0 .52-.04 1.01-.13 1.42h-7.53zm56.2-1.78c-.44 1.19-1.79 3.39-4.54 3.39-2.73 0-5-2.15-5-5.37 0-3.01 2.27-5.37 5.26-5.37 2.44 0 3.85 1.5 4.43 2.37l-1.81 1.21c-.6-.89-1.43-1.48-2.62-1.48-1.19 0-2.04.55-2.59 1.62l7.15 2.97-.28.66zm-7.29-1.82c-.06 2.08 1.61 3.14 2.81 3.14.94 0 1.73-.47 2-1.14l-4.77-1.98-.04-.02zm-5.81 4.45h-2.24V24.32h2.24v14.01zm-5.81-8.16h-.08c-.5-.6-1.46-1.14-2.68-1.14-2.54 0-4.87 2.24-4.87 5.12 0 2.86 2.33 5.1 4.87 5.1 1.21 0 2.18-.54 2.68-1.16h.08v.74c0 1.95-1.04 3-2.72 3-1.37 0-2.22-.99-2.57-1.82l-1.95.81c.56 1.35 2.04 3.01 4.52 3.01 2.63 0 4.85-1.55 4.85-5.31v-9.15h-2.13v.8zm-2.56 6.57c-1.53 0-2.81-1.29-2.81-3.06 0-1.79 1.27-3.09 2.81-3.09 1.51 0 2.7 1.32 2.7 3.09 0 1.75-1.19 3.06-2.7 3.06zm29.65-12.42h-5.36v14.01h2.24v-5.31h3.12c2.48 0 4.92-1.8 4.92-4.35s-2.44-4.35-4.92-4.35zm.06 6.75h-3.18v-4.81h3.18c1.56 0 2.45 1.29 2.45 2.4 0 1.1-.89 2.41-2.45 2.41zm13.17-2.01c-1.61 0-3.29.71-3.98 2.28l1.99.83c.42-.83 1.21-1.1 2.04-1.1 1.16 0 2.33.7 2.35 1.93v.16c-.41-.23-1.27-.58-2.33-.58-2.14 0-4.31 1.17-4.31 3.37 0 2 1.75 3.29 3.71 3.29 1.5 0 2.33-.67 2.85-1.46h.08v1.16h2.16v-5.75c0-2.66-1.99-3.63-4.56-3.63zm-.27 8.22c-.73 0-1.75-.37-1.75-1.27 0-1.16 1.27-1.6 2.37-1.6.99 0 1.45.21 2.04.5-.17 1.38-1.35 2.37-2.66 2.37zm12.73-7.89l-2.57 6.51h-.08l-2.66-6.51h-2.41l3.99 9.09-2.28 5.05h2.33l6.15-14.14h-2.47zm-20.19 9.59h2.24V24.32h-2.24v14.01z" fill="white"/>
  <path d="M20.44 11.74c-.31.33-.49.84-.49 1.5v23.53c0 .66.18 1.17.49 1.5l.08.08 13.17-13.17v-.31L20.52 11.7l-.08.04z" fill="url(#paint0_linear)"/>
  <path d="M37.45 28.93l-4.39-4.39v-.31l4.39-4.39.1.06 5.2 2.95c1.48.84 1.48 2.22 0 3.07l-5.2 2.95-.1.06z" fill="url(#paint1_linear)"/>
  <path d="M37.55 28.87l-4.49-4.49-12.62 12.62c.49.52 1.29.58 2.2.07l14.91-8.2" fill="url(#paint2_linear)"/>
  <path d="M37.55 19.89L22.64 11.7c-.91-.52-1.71-.45-2.2.07l12.62 12.62 4.49-4.5z" fill="url(#paint3_linear)"/>
  <defs>
    <linearGradient id="paint0_linear" x1="31.79" y1="13.17" x2="14.49" y2="30.47" gradientUnits="userSpaceOnUse">
      <stop stop-color="#00A0FF"/>
      <stop offset=".01" stop-color="#00A1FF"/>
      <stop offset=".26" stop-color="#00BEFF"/>
      <stop offset=".51" stop-color="#00D2FF"/>
      <stop offset=".76" stop-color="#00DFFF"/>
      <stop offset="1" stop-color="#00E3FF"/>
    </linearGradient>
    <linearGradient id="paint1_linear" x1="43.12" y1="24.38" x2="19.87" y2="24.38" gradientUnits="userSpaceOnUse">
      <stop stop-color="#FFE000"/>
      <stop offset=".41" stop-color="#FFBD00"/>
      <stop offset=".78" stop-color="orange"/>
      <stop offset="1" stop-color="#FF9C00"/>
    </linearGradient>
    <linearGradient id="paint2_linear" x1="34.83" y1="21.67" x2="12.07" y2="44.43" gradientUnits="userSpaceOnUse">
      <stop stop-color="#FF3A44"/>
      <stop offset="1" stop-color="#C31162"/>
    </linearGradient>
    <linearGradient id="paint3_linear" x1="17.3" y1="4.17" x2="27.85" y2="14.72" gradientUnits="userSpaceOnUse">
      <stop stop-color="#32A071"/>
      <stop offset=".07" stop-color="#2DA771"/>
      <stop offset=".48" stop-color="#15CF74"/>
      <stop offset=".8" stop-color="#06E775"/>
      <stop offset="1" stop-color="#00F076"/>
    </linearGradient>
  </defs>
</svg>
