<?xml version="1.0" encoding="UTF-8"?>
<svg width="800" height="600" viewBox="0 0 800 600" fill="none" xmlns="http://www.w3.org/2000/svg">
  <!-- Main Window -->
  <rect x="50" y="20" width="700" height="560" rx="12" fill="#1a1a1a" stroke="#2a2a2a" stroke-width="2"/>
  
  <!-- Header -->
  <rect x="70" y="40" width="660" height="60" rx="8" fill="#2a2a2a"/>
  <circle cx="100" cy="70" r="15" fill="#c5f82a"/>
  <rect x="130" y="60" width="100" height="20" rx="4" fill="#3a3a3a"/>
  
  <!-- Trading Interface -->
  <rect x="70" y="120" width="320" height="440" rx="8" fill="#2a2a2a"/>
  <rect x="410" y="120" width="320" height="440" rx="8" fill="#2a2a2a"/>
  
  <!-- Chart -->
  <path d="M90 300 L390 300" stroke="#3a3a3a" stroke-width="1"/>
  <path d="M90 350 L390 350" stroke="#3a3a3a" stroke-width="1"/>
  <path d="M90 400 L390 400" stroke="#3a3a3a" stroke-width="1"/>
  <path d="M90 250 L390 250" stroke="#3a3a3a" stroke-width="1"/>
  
  <!-- Trading Line -->
  <path d="M90 350 C150 350, 200 250, 250 300 C300 350, 350 200, 390 250" 
        stroke="#c5f82a" stroke-width="2" fill="none"/>
  
  <!-- Order Book -->
  <rect x="430" y="140" width="280" height="180" rx="4" fill="#3a3a3a"/>
  <rect x="430" y="340" width="280" height="200" rx="4" fill="#3a3a3a"/>
</svg>
